<?xml version="1.0" encoding="UTF-8"?>
<svg width="24px" height="24px" viewBox="0 0 24 24" version="1.1" xmlns="http://www.w3.org/2000/svg">
    <g stroke="none" stroke-width="1" fill="none" fill-rule="evenodd">
        <path d="M12,2 C17.5228,2 22,6.47715 22,12 C22,17.5228 17.5228,22 12,22 C6.47715,22 2,17.5228 2,12 C2,6.47715 6.47715,2 12,2 Z M12,4 C7.58172,4 4,7.58172 4,12 C4,16.4183 7.58172,20 12,20 C16.4183,20 20,16.4183 20,12 C20,7.58172 16.4183,4 12,4 Z M12,6 C14.7614,6 17,8.23858 17,11 C17,13.7614 14.7614,16 12,16 C9.23858,16 7,13.7614 7,11 C7,8.23858 9.23858,6 12,6 Z M12,8 C10.3431,8 9,9.34315 9,11 C9,12.6569 10.3431,14 12,14 C13.6569,14 15,12.6569 15,11 C15,9.34315 13.6569,8 12,8 Z" fill="#000000" fill-rule="nonzero"></path>
    </g>
</svg>
