<?xml version="1.0" encoding="UTF-8"?>
<svg width="24px" height="24px" viewBox="0 0 24 24" version="1.1" xmlns="http://www.w3.org/2000/svg">
    <g stroke="none" stroke-width="1" fill="none" fill-rule="evenodd">
        <path d="M14,6 L14,2 L16,2 L16,6 L20,6 L20,8 L16,8 L16,12 L20,12 L20,14 L16,14 L16,18 L20,18 L20,20 L16,20 L16,22 L14,22 L14,20 L10,20 L10,22 L8,22 L8,20 L4,20 L4,18 L8,18 L8,14 L4,14 L4,12 L8,12 L8,8 L4,8 L4,6 L8,6 L8,2 L10,2 L10,6 L14,6 Z M14,8 L10,8 L10,12 L14,12 L14,8 Z M14,14 L10,14 L10,18 L14,18 L14,14 Z" fill="#000000" fill-rule="nonzero"></path>
    </g>
</svg>
